<svg width="154" height="115" viewBox="0 0 154 115" fill="none" xmlns="http://www.w3.org/2000/svg">
<g clip-path="url(#clip0)">
<path d="M54.7023 78.0679L63.035 101.689L71.3229 78.0679H80.1013V110.635H73.3952V101.733L74.0637 86.3662L65.3074 110.635H60.7178L51.9835 86.3884L52.652 101.733V110.635H45.968V78.0679H54.7023Z" fill="white"/>
<path d="M109.1 26.2524H103.775V38.1743H97.0907V5.60704H109.145C112.977 5.60704 115.933 6.46519 118.012 8.17922C120.091 9.89401 121.131 12.3173 121.131 15.4484C121.131 17.6709 120.652 19.5231 119.693 21.0065C118.735 22.4908 117.284 23.6719 115.338 24.5522L122.357 37.8612V38.1743H115.182L109.1 26.2524ZM103.775 20.8172H109.167C110.845 20.8172 112.145 20.3889 113.066 19.5307C113.987 18.6733 114.447 17.4922 114.447 15.9851C114.447 14.4497 114.012 13.2419 113.142 12.3616C112.273 11.4821 110.941 11.0415 109.144 11.0415H103.774V20.8172H103.775Z" fill="white"/>
<path d="M60.1505 38.1743H53.4665V24.217H40.4324V38.1743H33.7484V5.60704H40.4324V18.8039H53.4665V5.60704H60.1505V38.1743Z" fill="white"/>
<path fill-rule="evenodd" clip-rule="evenodd" d="M38.5631 28.0917C50.2063 28.0642 58.4569 32.7192 65.8169 39.2684C68.5463 41.697 68.4612 46.0138 66.0572 48.8005C63.6655 51.5727 59.4227 52.0392 56.4385 49.7289C54.0118 47.8507 51.6025 45.9611 48.8785 44.5311C40.5663 40.17 30.7521 42.2429 25.9192 49.3693C20.5151 57.3385 22.9023 69.662 30.8213 73.7833C36.6117 76.7983 42.5458 76.2409 48.3393 73.5939C53.7874 71.1034 58.0219 66.9852 62.2327 62.8624C69.1129 56.1254 75.5079 48.9043 82.541 42.32C88.5458 36.6985 94.9629 31.664 103.079 29.5538C114.215 26.6586 124.622 27.9894 133.479 35.9693C139.117 41.0503 141.661 47.714 142.634 55.1443C144.587 70.0483 135.793 84.1835 121.614 88.5346C110.847 91.8389 100.949 89.6233 91.787 83.4001C90.0158 82.1969 88.3146 80.8768 86.6697 79.5033C83.4543 76.8189 83.036 72.4357 85.6187 69.3398C88.1017 66.366 92.4768 66.0186 95.6686 68.6045C98.5843 70.9668 101.601 73.158 105.105 74.5651C114.513 78.342 124.918 73.7665 127.849 64.5458C129.283 60.0336 129.001 55.5428 127.191 51.2169C124.573 44.9571 118.677 41.8635 110.938 42.4666C104.566 42.9629 99.5136 46.2184 94.8792 50.2679C88.1283 56.1674 82.1744 62.8776 75.8866 69.2489C69.4658 75.7546 63.0411 82.2938 54.6392 86.3128C46.5878 90.1646 38.1639 91.135 29.6334 88.5216C17.1218 84.6889 10.8203 75.6225 9.15103 62.8891C7.19275 47.9507 15.9308 34.0423 30.2159 29.5423C33.3887 28.5444 36.6406 28.0245 38.5631 28.0917Z" fill="#0597F2"/>
<path d="M22.519 29.6301C22.519 28.3627 22.0733 27.39 21.182 26.7113C20.2907 26.0326 18.6869 25.3172 16.3696 24.5644C14.0524 23.8116 12.2181 23.0695 10.8667 22.3388C7.18287 20.3408 5.34095 17.6495 5.34095 14.2642C5.34095 12.5051 5.83451 10.9354 6.8224 9.55578C7.81028 8.17693 9.2286 7.09889 11.0781 6.32395C12.9276 5.54901 15.003 5.16116 17.305 5.16116C19.6223 5.16116 21.6862 5.5826 23.4993 6.42473C25.3115 7.26762 26.7184 8.45713 27.7215 9.9925C28.7239 11.5286 29.2258 13.2732 29.2258 15.2262H22.541C22.541 13.7351 22.0733 12.5754 21.1372 11.7477C20.201 10.9201 18.8869 10.5063 17.1932 10.5063C15.5589 10.5063 14.2889 10.8529 13.3832 11.5462C12.4774 12.2394 12.0242 13.1533 12.0242 14.2863C12.0242 15.3453 12.555 16.2325 13.6174 16.9478C14.6791 17.664 16.2426 18.3343 18.3074 18.9612C22.1098 20.1094 24.8803 21.5333 26.618 23.2336C28.3558 24.9339 29.225 27.0511 29.225 29.5858C29.225 32.4038 28.1634 34.6149 26.0393 36.2182C23.9153 37.8215 21.0558 38.6224 17.4617 38.6224C14.9665 38.6224 12.6934 38.1636 10.6439 37.2466C8.59435 36.3297 7.03077 35.0738 5.95391 33.4773C4.87629 31.8816 4.33862 30.0325 4.33862 27.9298H11.0447C11.0447 31.5236 13.1832 33.3208 17.4617 33.3208C19.0511 33.3208 20.2915 32.9963 21.1828 32.3481C22.0741 31.6999 22.519 30.7929 22.519 29.6301Z" fill="white"/>
<path d="M105.456 96.5214H92.6228V105.245H107.684V110.636H85.9388V78.0687H107.64V83.5039H92.6228V91.2655H105.456V96.5214Z" fill="white"/>
<path d="M84.703 31.464H72.9838L70.7555 38.1743H63.6479L75.7238 5.60704H81.9181L94.0609 38.1743H86.9533L84.703 31.464ZM74.7884 26.0287H82.8983L78.8213 13.8382L74.7884 26.0287Z" fill="white"/>
<path d="M145.728 24.0605H132.895V32.7841H147.956V38.1743H126.211V5.60704H147.911V11.0423H132.895V18.8039H145.728V24.0605Z" fill="white"/>
</g>
<defs>
<clipPath id="clip0">
<rect width="154" height="115" fill="white"/>
</clipPath>
</defs>
</svg>
